<svg version="1.1" viewBox="0.0 0.0 115.69028871391076 117.50918635170603" fill="none" stroke="none" stroke-linecap="square" stroke-miterlimit="10" xmlns:xlink="http://www.w3.org/1999/xlink" xmlns="http://www.w3.org/2000/svg"><clipPath id="p.0"><path d="m0 0l115.69029 0l0 117.509186l-115.69029 0l0 -117.509186z" clip-rule="nonzero"/></clipPath><g clip-path="url(#p.0)"><path fill="#000000" fill-opacity="0.0" d="m0 0l115.69029 0l0 117.509186l-115.69029 0z" fill-rule="evenodd"/><path fill="#000000" fill-opacity="0.0" d="m0.08136483 -0.001312336l115.52756 0l0 117.51181l-115.52756 0z" fill-rule="evenodd"/><path fill="#000000" d="m32.12466 98.88334q-3.078123 -1.921875 -4.578123 -3.359375q-1.484375 -1.4375 -1.484375 -2.6875q0 -1.25 1.640625 -2.203125q0.484375 -0.296875 1.671875 0.53125q1.203125 0.8125 2.359375 1.96875q2.499998 2.296875 6.531248 2.296875q1.71875 0 4.609375 -0.671875q3.9375 -1.15625 6.953125 -3.359375q3.03125 -2.203125 5.8125 -5.671875q1.71875 -2.296875 2.578125 -5.078125q0.875 -2.78125 0.875 -5.28125q0 -3.078125 -1.15625 -4.515625q-3.84375 -5.1875 -10.9375 -5.1875q-3.078125 0 -5.765625 0.78125l-5.5625 1.140625q-0.1875 0.09375 -0.859375 0.25q-0.671875 0.140625 -2.125 4.171875q-1.4374981 4.03125 -3.734373 10.5625q-2.015625 5.859375 -3.171875 8.21875q-1.15625 2.34375 -2.109375 2.34375q-0.96875 0 -2.3125 -2.125q-1.046875 -1.71875 -1.046875 -2.96875q0 -1.25 0.859375 -2.6875q0.484375 -0.859375 0.8125 -1.71875q0.34375 -0.875 0.71875 -2.40625q1.25 -3.75 7.25 -18.625q5.999998 -14.890625 9.359373 -22.46875q2.40625 -5.46875 1.4375 -5.765625q0 -0.28125 -0.28125 -0.859375q-0.28125 -0.578125 -0.1875 -0.859375q0 -0.578125 2.6875 -1.71875q2.6875 -1.15625 3.9375 -0.96875l0.578125 0q1.234375 0 1.234375 -0.484375q0.203125 0 1.78125 -0.1875q1.578125 -0.1875 3.40625 0q6.4375 0.578125 9.984375 3.75q3.5625038 3.15625 3.4531288 8.4375q-0.09375 2.40625 -3.3593788 7.0625q-3.265625 4.65625 -6.515625 7.625q-1.546875 1.34375 -3.515625 2.84375q-1.96875 1.484375 -2.546875 1.859375l2.40625 0.859375q4.703125 1.734375 7.4375 4.28125q2.734375 2.546875 3.7968788 6.765625q0.1875 0.953125 0.1875 1.734375q0 2.109375 -0.71875 4.796875q-0.7187538 2.6875 -1.5781288 4.703125q-0.578125 0.578125 -0.96875 1.25q-0.375 0.671875 -0.46875 0.859375q-0.109375 0.390625 -1.734375 2.9375q-1.625 2.53125 -2.875 4.078125q-4.8125 4.125 -8.546875 5.46875q-4.03125 1.828125 -9.125 1.828125q-4.703125 0 -7.09375 -1.546875zm4.703125 -36.953125q1.046875 -0.203125 4.265625 -0.8125q3.21875 -0.625 4.46875 -1.109375q0.1875 -0.09375 1.1875 -0.625q1.015625 -0.53125 2.078125 -1.578125q2.296875 -2.125 5.65625 -6.296875q3.359375 -4.171875 4.890625 -7.046875q2.40625 -3.9375 2.40625 -5.765625q0 -1.25 -1.0625 -2.3125q-1.234375 -1.53125 -5.9375 -1.53125q-3.078125 0 -5.28125 0.578125q-1.34375 0.390625 -1.96875 0.921875q-0.625 0.515625 -0.625 1.578125q0 1.4375 -1.546875 2.96875q-0.09375 0.578125 -0.4375 1.109375q-0.328125 0.53125 -0.421875 0.625q0 0.28125 -1.15625 2.875q-1.53125 2.984375 -2.875 6.71875q-3.640625 8.640625 -3.640625 9.703125zm50.107487 34.65625q-2.203125 0.28125 -3.359375 0.28125q-1.0625 0 -2.078125 -0.25q-1.0 -0.234375 -1.765625 -0.46875q-0.765625 -0.234375 -1.15625 -0.328125q-1.25 -0.78125 -2.265625 -1.640625q-1.0 -0.859375 -1.375 -1.15625q0 -0.375 -0.203125 -0.65625q-0.1875 -0.296875 -0.28125 -0.390625q-0.375 0 -0.625 -1.53125q-0.234375 -1.546875 -0.234375 -3.75q0 -2.40625 0.28125 -4.5625q0.296875 -2.15625 0.671875 -2.828125q0 -0.390625 0.234375 -1.25q0.25 -0.859375 0.25 -1.15625q0 -0.765625 0.09375 -1.1875q0.09375 -0.4375 0.390625 -0.4375q0.09375 0 0.28125 -0.09375q0.1875 -0.109375 0.1875 -0.296875q0 -0.484375 0.390625 -1.625q0.390625 -1.15625 0.578125 -1.828125q0.375 -0.671875 1.53125 -3.9375q0.390625 -1.34375 1.0625 -2.96875q0.28125 -1.453125 1.71875 -5.1875l0.875 -2.40625q1.34375 -2.296875 1.34375 -3.453125q0.671875 -1.921875 5.515625 -11.328125q4.84375 -9.40625 6.28125 -11.328125q1.453125 -1.828125 2.21875 -2.34375q0.765625 -0.53125 1.71875 -0.53125q0.765625 0.28125 2.015625 1.578125q1.25 1.296875 1.34375 2.0625q0 0.390625 -1.6875 2.84375q-1.671875 2.4375 -3.203125 4.078125q-0.1875 0.28125 -0.296875 0.578125q-0.09375 0.28125 -0.09375 0.375q-0.671875 1.15625 -2.453125 4.46875q-1.765625 3.3125 -1.953125 4.453125q-1.15625 1.34375 -4.515625 9.421875q-1.53125 3.546875 -1.734375 3.734375q0 1.15625 -0.46875 1.828125q-0.203125 0.484375 -1.015625 2.984375q-0.8125 2.484375 -1.96875 4.890625q-0.671875 2.6875 -1.578125 4.953125q-0.90625 2.25 -1.484375 2.8125q-0.296875 0.671875 -0.34375 0.96875q-0.046875 0.28125 0.34375 0.1875q0.28125 -0.28125 0.375 -0.28125q0.09375 0 0.09375 0.1875q0 0.28125 -0.46875 1.0625q-0.96875 2.484375 -0.96875 4.796875q0.1875 3.171875 0.859375 4.234375q0.6875 1.046875 2.890625 1.046875q4.515625 0 10.9375 -1.546875q2.890625 -0.953125 5.28125 -0.953125q2.59375 0 3.546875 1.25q0.484375 0.765625 0.625 1.203125q0.15625 0.421875 0.15625 1.09375q-0.578125 0.875 -6.921875 2.5q-6.328125 1.625 -9.59375 1.828125z" fill-rule="nonzero"/></g></svg>